<?xml version="1.0" encoding="UTF-8"?>
<!DOCTYPE svg PUBLIC "-//W3C//DTD SVG 1.1//EN" "http://www.w3.org/Graphics/SVG/1.1/DTD/svg11.dtd">
<!-- Creator: CorelDRAW -->
<svg xmlns="http://www.w3.org/2000/svg" xml:space="preserve" width="138.737mm" height="69.3687mm" version="1.1" style="shape-rendering:geometricPrecision; text-rendering:geometricPrecision; image-rendering:optimizeQuality; fill-rule:evenodd; clip-rule:evenodd"
viewBox="0 0 21339.04 10669.52"
 xmlns:xlink="http://www.w3.org/1999/xlink"
 xmlns:xodm="http://www.corel.com/coreldraw/odm/2003">
 <defs>
  <style type="text/css">
   <![CDATA[
    .fil0 {fill:#F2FBFF}
    .fil3 {fill:#F43540}
    .fil7 {fill:#39B4E4}
    .fil4 {fill:#00AFA9}
    .fil1 {fill:#DB2796}
    .fil6 {fill:#FBB700}
    .fil2 {fill:#7C4181}
    .fil5 {fill:#154F8F}
    .fil8 {fill:#154F8F;fill-rule:nonzero}
   ]]>
  </style>
 </defs>
 <g id="Слой_x0020_1">
  <metadata id="CorelCorpID_0Corel-Layer"/>
  <rect class="fil0" x="-0.02" y="-0.01" width="21339.04" height="10669.52"/>
  <g id="_105553315378816">
   <polygon class="fil1" points="13011.01,5876.16 13223.08,6030.15 12811.8,6318.62 12911.44,5907.34 "/>
   <polygon class="fil1" points="10158.44,5976.01 10407.54,6371.5 10630.05,6395.94 10395.51,5944.45 "/>
   <polygon class="fil2" points="12181.87,5372.5 11834.45,5464.93 11412.66,5327.34 11717.68,5191.71 "/>
   <polygon class="fil2" points="10344.4,6902.05 10498.51,7342.43 10652.12,6849.65 10549.22,6461.66 "/>
   <polygon class="fil2" points="10708.74,6680.98 11377.44,6622.45 11508.45,6499.35 11482.06,6340.31 "/>
   <polygon class="fil2" points="8848.51,6019.14 9192.85,6215.15 9746,6268.85 9548.31,6053.02 "/>
   <polygon class="fil3" points="13243.52,5694.43 13953.6,5393.32 14252.4,5396.81 13804.99,5734.81 "/>
   <polygon class="fil3" points="9693.88,7081.97 9890.12,7411.43 9508.94,7868.94 9473.16,7453.99 "/>
   <polygon class="fil3" points="11427.61,5731.67 11706.97,5813.44 11491.13,6288.64 11366.56,6046.3 "/>
   <polygon class="fil3" points="8745.78,5729.62 8662.71,5931.48 9284.44,5971.92 9371.6,5670.72 "/>
   <polygon class="fil4" points="9729.73,7025.83 9946.42,7371.24 10223.26,6917.38 9828.18,6863.2 "/>
   <polygon class="fil4" points="10158.44,5360.21 10110.47,5919.72 9948.05,5944.48 9841.27,5216.36 "/>
   <polygon class="fil4" points="6752.02,3979.45 7017.8,4007.53 7639.87,4294.31 7100.14,4425.51 "/>
   <polygon class="fil4" points="7963.9,5611.78 7920.54,5308.31 8204.5,5179.71 8651.52,5693.65 "/>
   <polygon class="fil4" points="8608.2,6711.08 9192.86,6582.85 9192.86,6782.11 8848.51,6932.69 "/>
   <polygon class="fil4" points="10469.89,5926.72 10721.89,5895.62 10921.33,5980.36 10700.43,6350.14 "/>
   <polygon class="fil4" points="11878.22,6268.86 12053,6215.17 12494.21,6399.89 11983.18,6492.75 "/>
   <polygon class="fil4" points="11164.87,5432.22 11079.91,5824.57 11357.8,5815.71 11345.63,5342.26 "/>
   <polygon class="fil4" points="9233.56,4951.52 9685.74,5182.74 9284.44,5640.75 9141.18,5646.64 "/>
   <polygon class="fil4" points="8293.54,5155.64 8454.06,5327.38 9206.09,4903.79 9040.36,4813.2 "/>
   <polygon class="fil5" points="13316.92,6019.14 13854.24,5835.77 13173.63,5731.53 13040.65,5800.88 "/>
   <polygon class="fil5" points="12831.21,5925.84 12717.87,6429.5 12138.02,6187.65 12186.23,6095.27 "/>
   <polygon class="fil5" points="7882.52,4479.45 7819.9,4313.09 7283.42,4472.04 7201.97,4838.46 "/>
   <polygon class="fil5" points="8211.78,3904.87 8360.49,3964.05 8604.36,4390.52 8131.41,4558.6 "/>
   <polygon class="fil5" points="8137.27,4628.77 7998.83,4684.49 8098.39,5148.27 8398.93,5027.2 "/>
   <polygon class="fil5" points="8814.92,7283.43 8894.84,6991.53 9212.44,6835.63 9235.59,6969.48 "/>
   <polygon class="fil5" points="9622.48,6368.84 9922.79,6682.38 10158.46,6425.44 9787.21,6303.18 "/>
   <polygon class="fil5" points="9771.4,5193.68 9386.44,5602.24 9462.27,5670.73 9828.23,5612.05 "/>
   <polygon class="fil5" points="11565.95,6377.81 11585.59,6486.72 11940.78,6590.68 11821.48,6303.18 "/>
   <polygon class="fil5" points="11053.64,5895.6 10794.44,6303.13 11311.93,6046.24 11350.24,5876.17 "/>
   <polygon class="fil6" points="14174.16,5006.34 13365.91,5411.04 13351.14,5565.11 13927.6,5342.26 "/>
   <polygon class="fil6" points="11983.18,5802.53 12107.71,6046.29 12960.72,5828.08 12368.01,5758.6 "/>
   <polygon class="fil6" points="8991.46,4755.03 8468.13,4992.37 8204.5,4607.65 8672.69,4425.51 "/>
   <polygon class="fil6" points="6928.53,3556.18 7057.7,3947.47 7784.79,4248.17 7549.24,3844.13 "/>
   <polygon class="fil6" points="7914.85,4534.95 7329.45,4843.29 7521.08,5090.96 7963.88,4914.79 "/>
   <polygon class="fil6" points="7946.32,3357.23 8183.77,3666.2 8037.31,4583.46 7816.35,4101.42 "/>
   <polygon class="fil6" points="9309.56,6902.05 9607.33,7089.25 9850.73,6704.57 9765.77,6610.1 "/>
   <polygon class="fil6" points="6935.95,3085.94 7385.7,3343.45 7549.2,3771.81 7133.15,3556.2 "/>
   <polygon class="fil6" points="11100.81,5460.41 10880.48,5575.51 10758.28,5850.53 10952.65,5921.36 "/>
   <polygon class="fil7" points="10075.19,7760.99 10426.42,7377.1 10284.57,6939.76 9943.37,7509.87 "/>
   <polygon class="fil7" points="11789.12,5817.22 11902.68,5813.4 12066.01,6132.48 11545.77,6318.65 "/>
   <polygon class="fil7" points="12960.68,5758.57 13280.36,5588.34 13280.36,5464.95 12509.92,5724.58 "/>
   <polygon class="fil7" points="10801.96,5574.77 10672.67,5836.04 10185.73,5910.13 10232.52,5372.47 "/>
   <polygon class="fil7" points="7980.32,4967.29 7536.86,5168.24 7871.15,5280.01 8037.28,5179.7 "/>
   <polygon class="fil7" points="8517.99,5395.26 9141.12,5007.63 9076.41,5640.82 8729.77,5664.67 "/>
   <polygon class="fil7" points="9576.71,6395.94 9260.18,6547.07 9268.43,6835.65 9721.73,6571.4 "/>
   <polygon class="fil7" points="9309.56,6985.4 9572.66,7147.37 9222.88,7686.09 9027.67,7216.83 "/>
   <polygon class="fil7" points="9607.36,6030.26 9767.31,6205.71 10344.4,6395.92 10072.62,5986.79 "/>
   <polygon class="fil7" points="11326.42,6101.07 11438.36,6297.06 10652.08,6643.94 10630.05,6487.24 "/>
   <polygon class="fil7" points="10284.57,6848.58 9879.89,6814.72 10242.94,6438.53 10449.19,6461.72 "/>
   <polygon class="fil7" points="9875.02,5950.09 9700.66,5959.69 9361.79,5978.44 9429.36,5711.84 9841.24,5670.67 "/>
   <polygon class="fil7" points="11412.66,5393.34 11417.83,5662.26 11673.77,5742.96 11813.67,5528.86 "/>
   <polygon class="fil7" points="7420.4,3224.65 7490.89,2804.95 7843.14,3468.57 7743.34,3992.97 "/>
   <path class="fil8" d="M9616.25 3130.53c35.67,0 63.31,-9.32 83.01,-27.98 19.61,-18.58 29.49,-41.73 29.49,-69.23l0 -1.86c0,-31.84 -10.26,-55.94 -30.95,-72.51 -20.55,-16.4 -48.63,-24.72 -84.3,-24.72l-109.73 0 0 196.29 112.48 0zm-254.46 -325.46l263.74 0c38.7,0 73.23,5.44 103.67,16.23 30.44,10.67 56.17,25.95 77.52,45.65 21.12,19.61 37.39,43.14 48.74,70.43 11.41,27.42 17.13,57.63 17.13,90.82l0 1.86c0,37.51 -6.86,70.37 -20.33,98.67 -13.52,28.3 -32.12,51.9 -55.83,70.94 -23.64,19.09 -51.28,33.42 -82.93,42.87 -31.58,9.64 -65.66,14.3 -101.84,14.3l-107.88 0 0 193.66 -141.98 0 0 -645.43z"/>
   <polygon class="fil8" points="10027.35,3450.44 10153.66,3229.14 9905.7,2805.06 10066.17,2805.06 10232.96,3100.14 10385.96,2805.06 10543.67,2805.06 10185,3450.44 "/>
   <polygon class="fil8" points="11177.53,2805.1 10961.82,3120.33 11186.81,3450.53 11020.79,3450.53 10876.11,3229.19 10730.43,3450.53 10569.13,3450.53 10794.06,3122.26 10578.39,2805.1 10744.25,2805.1 10878.87,3014.36 11016.25,2805.1 "/>
   <path class="fil8" d="M11644.88 3180.34l-85.7 -209.26 -85.76 209.26 171.47 0zm-149.29 -379.77l130.91 0 276.56 649.86 -148.44 0 -58.97 -144.67 -272.96 0 -58.89 144.67 -144.75 0 276.55 -649.86z"/>
   <polygon class="fil8" points="12002.56,2805.1 12144.56,2805.1 12144.56,3060.41 12406.34,3060.41 12406.34,2805.1 12548.35,2805.1 12548.35,3450.53 12406.34,3450.53 12406.34,3191.33 12144.56,3191.33 12144.56,3450.53 12002.56,3450.53 "/>
   <polygon class="fil8" points="13134.67,3450.44 13134.67,3029.2 12828.58,3450.44 12703.18,3450.44 12703.18,2805.06 12845.19,2805.06 12845.19,3213.54 13141.12,2805.06 13276.65,2805.06 13276.65,3450.44 "/>
   <polygon class="fil8" points="9553.57,3834.45 9762.85,4096.28 9792.33,4096.28 9791.38,3834.45 9931.51,3834.45 9929.65,4096.28 9961.11,4096.28 10171.27,3834.45 10338.08,3834.45 10077.2,4149.75 10361.16,4479.82 10192.45,4479.82 9967.5,4215.18 9929.65,4215.18 9931.51,4479.82 9791.38,4479.82 9792.33,4215.18 9751.79,4215.18 9528.72,4479.82 9361.79,4479.82 9646.64,4149.75 9384.88,3834.45 "/>
   <path class="fil8" d="M10795.3 4209.62l-85.7 -209.21 -85.76 209.21 171.47 0zm-149.33 -379.77l130.92 0 276.61 649.92 -148.44 0 -58.97 -144.73 -272.95 0 -58.99 144.73 -144.67 0 276.49 -649.92z"/>
   <polygon class="fil8" points="11649.91,4479.77 11556.79,4479.77 11556.79,4220.74 11295.01,4220.74 11295.01,4479.77 11153.03,4479.77 11153.03,3834.41 11295.01,3834.41 11295.01,4089.78 11556.79,4089.78 11556.79,3834.41 11698.73,3834.41 11698.73,4350.71 11782.69,4350.71 11782.69,4610.7 11649.91,4610.7 "/>
   <polygon class="fil8" points="12074.88,3963.25 12074.88,4104.85 12231.65,4104.85 12231.65,4233.85 12074.88,4233.85 12074.88,4479.51 11932.78,4479.51 11932.78,4233.85 11863.94,4233.85 11863.94,4104.85 11932.78,4104.85 11932.78,3834.18 12396.42,3834.18 12396.42,3963.25 "/>
   <path class="fil8" d="M13108.3 3834.48l141.98 0 0 645.37 -141.98 0 0 -645.37zm-351.25 516.24c35.04,0 62.72,-7.8 83.06,-23.36 20.23,-15.67 30.44,-39.02 30.44,-70.26l0 -0.85c0,-29.42 -9.6,-52.17 -28.64,-68.41 -19.04,-16.21 -47.07,-24.3 -83.86,-24.3l-112.48 0 0 187.19 111.48 0zm-253.52 -516.24l142.04 0 0 202.81 114.36 0c38.68,0 73.67,4.54 105.02,13.69 31.33,9.26 58.02,23.04 80.2,41.11 22.12,18.13 39.21,40.94 51.16,68.24 11.98,27.35 17.98,58.85 17.98,94.47l0 0.95c0,68.8 -22.3,123.39 -66.83,163.67 -44.54,40.25 -108.96,60.29 -193.21,60.29l-250.71 0 0 -645.24z"/>
   <path class="fil8" d="M13659.62 4159.82c35.65,0 63.28,-9.32 83.06,-27.92 19.55,-18.64 29.44,-41.73 29.44,-69.24l0 -1.85c0,-31.92 -10.34,-56 -30.96,-72.57 -20.55,-16.4 -48.63,-24.67 -84.29,-24.67l-109.76 0 0 196.24 112.51 0zm-254.43 -325.41l263.69 0c38.68,0 73.24,5.4 103.68,16.17 30.44,10.74 56.2,25.96 77.44,45.68 21.18,19.64 37.47,43.13 48.8,70.48 11.35,27.36 17.07,57.62 17.07,90.81l0 1.86c0,37.47 -6.72,70.37 -20.27,98.68 -13.54,28.3 -32.07,51.9 -55.77,70.88 -23.64,19.1 -51.33,33.42 -83.01,42.97 -31.56,9.55 -65.66,14.26 -101.82,14.26l-107.9 0 0 193.6 -141.92 0 0 -645.38z"/>
   <polygon class="fil8" points="14070.71,4479.77 14197.08,4258.49 13949.04,3834.41 14109.51,3834.41 14276.32,4129.49 14429.31,3834.41 14587.01,3834.41 14228.36,4479.77 "/>
  </g>
 </g>
</svg>
